/* XPM */
static char * logo_connected_xpm[] = {
"32 32 26 1",
" 	c None",
".	c #FFFFFF",
"+	c #EEFFFF",
"@	c #CCDDFF",
"#	c #AABBEE",
"$	c #DDEEFF",
"%	c #88AAEE",
"&	c #AAAAFF",
"*	c #BBCCFF",
"=	c #8899EE",
"-	c #EEEEFF",
";	c #9999EE",
">	c #99AAEE",
",	c #99BBFF",
"'	c #AABBFF",
")	c #AACCFF",
"!	c #DDDDFF",
"~	c #AAAAEE",
"{	c #CCEEFF",
"]	c #7788EE",
"^	c #FFEEFF",
"/	c #BBBBFF",
"(	c #EEFFEE",
"_	c #DDFFFF",
":	c #CCCCFF",
"<	c #7799EE",
"................................",
"................................",
"................................",
"................................",
"................................",
"................................",
"................+@#$............",
"...............$%&*=............",
"..............*=$+*#............",
".............@%+.@=+............",
".........+-.@;-.@=-.............",
".......$>=>=>--;,-....+.........",
"......$=@+...+=>**@++'=*........",
"......))......$*@@&=>#+=+.......",
"......$=;$.........+!.)~........",
".......+{]+^.........@>.........",
"....+-*>=*..........+*/.........",
"(.$>=>*$+++++.........=#+.......",
"./=!++-/=>>>>=;#@-+...+*=*+.....",
".]_+:>>*+....+-!'%=>/$..+/=@....",
".*>>~$............+$:>;@+.->>+..",
"..+...................+>,+..*=+.",
"......................../>+..'*.",
".........................'=...,.",
"..........................*>-!>.",
"...........................:=<$.",
"................................",
"................................",
"................................",
"................................",
"................................",
"................................"};
