/* XPM */
static char * logo_disconnected_xpm[] = {
"32 32 27 1",
" 	c None",
".	c #FFFFFF",
"+	c #EC1B1B",
"@	c #EEFFFF",
"#	c #CCDDFF",
"$	c #AABBEE",
"%	c #DDEEFF",
"&	c #88AAEE",
"*	c #AAAAFF",
"=	c #BBCCFF",
"-	c #8899EE",
";	c #9999EE",
">	c #EEEEFF",
",	c #99AAEE",
"'	c #99BBFF",
")	c #AACCFF",
"!	c #DDDDFF",
"~	c #AAAAEE",
"{	c #CCEEFF",
"]	c #7788EE",
"^	c #FFEEFF",
"/	c #BBBBFF",
"(	c #EEFFEE",
"_	c #DDFFFF",
":	c #CCCCFF",
"<	c #AABBFF",
"[	c #7799EE",
"................................",
"................................",
"................................",
"................................",
"................................",
".....++..................++.....",
".....+++........@#$%....+++.....",
"......++++.....%&*=-..++++......",
".......++++...=-%@=$.++++.......",
".......+++++.#&@.#-@+++++.......",
"........+++++;>.#->+++++........",
".......%,+++++>;'>+++++.........",
"......%-#@+++++,=+++++-=........",
"......))...++++++++++$@-@.......",
"......%-;%..++++++++!.)~........",
".......@{]@^.++++++..#,.........",
"....@>=,-=...++++++.@=/.........",
"(.%,-,=%@@@@++++++++..-$@.......",
"./-!@@>/-,,++++++++++.@=-=@.....",
".]_@:,,=@.+++++!<+++++..@/-#....",
".=,,~%...+++++....+++++#@.>,,@..",
"..@.....+++++......+++++'@..=-@.",
"........++++........++++/,@..<=.",
".......++++..........++++<-...'.",
"......+++..............+++=,>!,.",
"......++................++.:-[%.",
"................................",
"................................",
"................................",
"................................",
"................................",
"................................"};
